<?xml version="1.0" standalone="no"?>
<!DOCTYPE svg PUBLIC "-//W3C//DTD SVG 20010904//EN"
 "http://www.w3.org/TR/2001/REC-SVG-20010904/DTD/svg10.dtd">
<svg version="1.0" xmlns="http://www.w3.org/2000/svg"
 width="512.000000pt" height="512.000000pt" viewBox="0 0 512.000000 512.000000"
 preserveAspectRatio="xMidYMid meet">

<g transform="translate(0.000000,512.000000) scale(0.100000,-0.100000)"
fill="none" stroke="none">
<path d="M3678 4941 c-246 -54 -436 -157 -609 -330 -179 -180 -287 -383 -335
-628 -21 -105 -23 -327 -5 -422 33 -170 96 -330 182 -459 l41 -63 -76 -210
c-67 -184 -76 -218 -76 -277 1 -100 50 -190 133 -241 18 -10 203 -81 412 -156
330 -119 388 -137 441 -137 74 -1 143 28 197 80 50 48 60 69 143 299 l69 192
85 27 c47 14 130 49 184 77 332 170 563 479 637 852 20 102 18 349 -5 453 -51
239 -150 424 -321 601 -154 159 -344 270 -564 328 -133 36 -401 42 -533 14z
m434 -155 c15 -7 15 -11 -3 -51 -11 -24 -22 -64 -26 -90 l-6 -46 -41 7 c-23 4
-84 6 -137 6 -383 -2 -719 -267 -820 -647 -30 -113 -30 -307 0 -420 83 -313
326 -552 635 -625 104 -25 271 -28 373 -6 314 65 565 300 655 613 19 65 23
102 23 228 0 126 -4 163 -23 228 -43 151 -138 306 -245 403 -58 53 -169 128
-222 150 -32 13 -35 18 -35 54 0 44 15 85 43 117 l19 22 56 -25 c146 -64 326
-217 416 -352 216 -326 243 -714 74 -1057 -133 -269 -366 -458 -668 -541 -46
-13 -92 -32 -101 -41 -9 -10 -52 -115 -94 -233 -43 -118 -83 -227 -91 -241
-34 -68 -105 -76 -234 -28 -47 17 -207 75 -357 129 -149 54 -282 106 -296 114
-30 20 -47 57 -47 103 0 20 36 133 80 255 44 121 80 232 80 247 0 16 -18 50
-45 86 -65 85 -141 244 -172 360 -23 89 -26 118 -26 260 0 141 3 172 25 256
104 387 404 677 788 760 68 15 117 18 245 15 88 -1 167 -6 177 -10z m-12 -357
c120 -32 204 -82 300 -179 142 -141 204 -292 203 -490 -1 -187 -66 -343 -197
-475 -81 -81 -162 -134 -268 -173 -66 -24 -86 -26 -218 -27 -126 0 -154 3
-215 24 -204 68 -360 220 -438 425 -30 78 -32 87 -32 231 0 131 3 158 23 215
36 101 99 198 177 275 182 179 417 240 665 174z"/>
<path d="M3204 2767 c-35 -31 -37 -77 -4 -112 48 -51 130 -16 130 55 0 70 -72
103 -126 57z"/>
<path d="M3679 2581 c-16 -16 -29 -39 -29 -51 0 -30 53 -80 85 -80 36 0 75 41
75 80 0 39 -39 80 -75 80 -16 0 -38 -12 -56 -29z"/>
<path d="M1060 3579 c-282 -33 -530 -157 -731 -366 -140 -146 -241 -321 -295
-513 -22 -81 -27 -121 -31 -269 -6 -196 4 -278 48 -414 83 -255 228 -462 425
-610 113 -85 219 -140 360 -186 l117 -39 82 -208 c77 -199 84 -212 136 -266
66 -67 138 -94 223 -85 55 6 749 270 824 313 49 29 93 85 118 150 30 79 16
152 -73 379 l-79 200 29 45 c133 205 209 488 192 720 -43 611 -490 1083 -1088
1149 -108 12 -149 12 -257 0z m265 -180 c345 -42 647 -252 805 -559 177 -345
150 -745 -71 -1071 -23 -34 -42 -74 -42 -88 0 -14 39 -127 87 -251 76 -195 87
-231 83 -270 -4 -32 -13 -51 -34 -70 -30 -27 -744 -310 -782 -310 -35 0 -86
26 -102 51 -9 13 -51 114 -93 224 -95 244 -103 262 -124 270 -9 4 -51 15 -92
25 -175 43 -335 131 -469 257 -146 137 -246 304 -298 501 -23 84 -26 117 -27
252 0 126 4 171 21 241 29 113 87 248 148 340 61 91 189 221 272 278 82 54 93
58 93 33 0 -11 15 -50 34 -86 l35 -66 -57 -39 c-78 -52 -191 -174 -241 -258
-159 -268 -160 -612 -3 -871 125 -207 294 -333 537 -400 85 -24 317 -23 403 1
170 46 296 119 412 237 265 271 320 685 135 1015 -185 329 -583 502 -948 409
-81 -20 -106 -13 -129 38 -26 55 -31 94 -14 111 26 25 208 62 326 66 25 0 86
-4 135 -10z m56 -364 c229 -59 427 -258 495 -495 24 -87 24 -260 0 -350 -68
-253 -256 -435 -516 -501 -70 -18 -102 -21 -190 -16 -186 10 -324 71 -456 202
-132 131 -203 301 -204 488 -1 453 430 786 871 672z"/>
<path d="M1845 1389 c-32 -18 -45 -40 -45 -76 0 -44 30 -73 75 -73 54 0 81 34
75 95 -4 44 -66 75 -105 54z"/>
<path d="M1364 1206 c-75 -33 -49 -146 33 -146 46 0 77 30 77 74 0 62 -53 96
-110 72z"/>
<path d="M3172 2057 c-28 -29 -29 -87 -4 -110 54 -49 132 -18 132 52 0 72 -81
108 -128 58z"/>
<path d="M3164 1742 c-57 -9 -79 -97 -35 -133 69 -56 163 22 121 101 -11 21
-55 37 -86 32z"/>
<path d="M3184 1387 c-51 -45 -20 -137 46 -137 72 0 106 85 55 135 -30 31 -66
32 -101 2z"/>
<path d="M3301 1064 c-44 -56 -10 -124 61 -124 41 0 78 36 78 75 0 12 -9 34
-21 49 -29 37 -89 37 -118 0z"/>
<path d="M3305 748 c-49 -26 -59 -77 -24 -122 40 -51 122 -26 135 41 5 27 1
37 -24 63 -32 32 -54 36 -87 18z"/>
<path d="M1954 700 c-28 -11 -54 -48 -54 -76 0 -12 9 -33 21 -48 29 -37 89
-37 118 0 27 34 27 67 -1 98 -27 29 -55 38 -84 26z"/>
<path d="M2185 458 c-30 -17 -44 -40 -45 -71 0 -38 40 -77 80 -77 36 0 80 38
80 69 0 33 -21 68 -47 80 -30 14 -43 13 -68 -1z"/>
<path d="M3113 450 c-29 -27 -37 -56 -23 -89 21 -53 86 -66 125 -26 70 69 -31
182 -102 115z"/>
<path d="M2476 299 c-20 -16 -26 -29 -26 -59 0 -30 6 -43 26 -59 15 -12 37
-21 49 -21 12 0 34 9 49 21 20 16 26 29 26 59 0 30 -6 43 -26 59 -15 12 -37
21 -49 21 -12 0 -34 -9 -49 -21z"/>
<path d="M2809 291 c-29 -23 -31 -81 -4 -111 25 -28 87 -27 115 2 65 70 -36
170 -111 109z"/>
</g>
</svg>
