<?xml version="1.0" standalone="no"?>
<!DOCTYPE svg PUBLIC "-//W3C//DTD SVG 20010904//EN"
 "http://www.w3.org/TR/2001/REC-SVG-20010904/DTD/svg10.dtd">
<svg version="1.0" xmlns="http://www.w3.org/2000/svg"
 width="512.000000pt" height="512.000000pt" viewBox="0 0 512.000000 512.000000"
 preserveAspectRatio="xMidYMid meet">

<g transform="translate(0.000000,512.000000) scale(0.100000,-0.100000)"
fill="#none" stroke="none">
<path d="M2890 5099 c-101 -46 -154 -127 -154 -234 0 -79 20 -129 75 -183 69
-67 64 -67 482 -70 l377 -3 0 -107 0 -107 -54 -47 c-78 -68 -109 -136 -114
-250 l-4 -88 -63 0 c-111 0 -192 -43 -242 -128 -26 -43 -28 -58 -33 -172 l-5
-125 -58 -7 c-167 -21 -319 -165 -356 -336 -7 -34 -11 -184 -11 -412 l0 -360
-308 0 c-170 0 -311 2 -313 5 -3 2 14 213 37 467 64 686 74 827 74 1009 0 206
-11 251 -79 319 -85 85 -24 80 -1036 80 -994 0 -949 3 -1023 -69 -71 -70 -77
-90 -80 -321 -3 -194 3 -266 102 -1350 58 -630 115 -1251 127 -1380 15 -170
22 -344 25 -630 6 -445 7 -453 79 -525 81 -82 -122 -75 2266 -75 1538 0 2143
3 2181 11 157 34 294 170 327 327 8 37 11 469 11 1460 0 1538 3 1470 -57 1572
-63 107 -190 193 -308 208 l-60 7 -5 125 c-5 114 -7 129 -33 172 -50 85 -131
128 -242 128 l-63 0 -4 88 c-5 114 -36 182 -114 250 l-54 47 0 100 1 100 183
-186 c163 -166 189 -188 236 -204 215 -71 411 147 315 350 -29 59 -468 510
-525 538 l-45 22 -705 2 c-691 3 -706 2 -750 -18z m1425 -162 c11 -7 118 -111
237 -233 140 -142 219 -231 224 -249 9 -36 -12 -75 -50 -93 -23 -12 -33 -12
-60 0 -18 7 -112 96 -216 203 -101 105 -193 195 -204 202 -16 9 -176 12 -654
13 l-634 0 -29 29 c-17 18 -29 40 -29 56 0 16 12 38 29 56 l29 29 669 0 c506
-1 673 -4 688 -13z m-305 -412 l0 -85 -85 0 -85 0 0 85 0 85 85 0 85 0 0 -85z
m42 -265 c48 -14 97 -55 114 -97 8 -18 14 -60 14 -93 l0 -60 -255 0 -255 0 0
60 c0 95 40 158 117 186 45 16 212 18 265 4z m-3712 -170 c0 -129 19 -160 95
-160 24 0 39 7 54 26 18 23 21 41 21 125 l0 99 85 0 85 0 0 -90 c0 -95 14
-142 45 -154 34 -13 79 -6 102 16 21 20 23 30 23 125 l0 103 84 0 84 0 4 -99
c3 -89 6 -102 27 -125 31 -33 85 -35 118 -4 21 20 23 30 23 125 l0 103 90 0
90 0 0 -102 c0 -91 2 -104 22 -125 31 -33 87 -31 119 3 21 23 24 36 27 125 l4
99 84 0 84 0 0 -102 c0 -91 2 -104 22 -125 21 -23 67 -30 103 -17 31 12 45 59
45 154 l0 90 56 0 c48 0 59 -4 85 -29 l29 -29 0 -141 0 -141 -940 0 -940 0 0
136 c0 181 12 203 113 204 l57 0 0 -90z m4139 -265 c38 -19 41 -30 41 -146 l0
-99 -595 0 -595 0 0 103 c0 106 5 124 45 145 14 8 185 11 548 12 444 0 532 -2
556 -15z m-2443 -202 c-3 -27 -26 -275 -51 -553 -25 -278 -48 -526 -51 -552
l-6 -48 -58 0 c-31 0 -76 -6 -98 -14 l-41 -15 -6 47 c-42 357 -142 596 -311
751 -362 331 -823 -7 -909 -666 -74 -563 135 -1106 472 -1225 68 -23 180 -25
242 -4 24 9 47 16 52 16 5 0 9 -76 9 -170 l0 -170 -430 0 c-236 0 -430 1 -430
3 0 2 -54 597 -120 1322 -66 725 -120 1320 -120 1322 0 2 419 3 931 3 l931 0
-6 -47z m2773 -239 c90 -45 141 -137 141 -253 l0 -51 -1026 0 -1027 0 5 73 c8
113 60 192 158 236 44 20 62 21 871 21 l825 0 53 -26z m-3589 -214 c122 -62
230 -228 289 -443 36 -134 46 -218 46 -397 -1 -183 -17 -299 -56 -405 -16 -44
-24 -52 -63 -68 -51 -21 -110 -81 -134 -136 -8 -20 -18 -65 -21 -101 l-6 -65
-54 -27 c-71 -36 -154 -38 -220 -6 -138 66 -256 267 -313 530 -32 150 -32 437
1 587 37 176 102 323 188 429 98 120 230 160 343 102z m3728 -1377 l2 -1113
-555 0 -555 0 0 300 0 300 25 -12 c32 -15 71 -2 170 55 263 152 425 359 451
579 19 159 -73 320 -222 390 -60 28 -72 30 -147 26 -84 -5 -165 -35 -196 -72
-17 -20 -35 -20 -52 0 -7 8 -36 27 -63 41 -59 30 -168 42 -231 24 -30 -8 -41
-8 -44 1 -10 30 -89 100 -140 125 -55 27 -61 28 -271 33 l-215 5 -3 205 c-1
112 0 210 2 217 4 11 203 13 1023 11 l1018 -3 3 -1112z m-1618 485 c70 -48 75
-62 78 -239 l3 -159 -850 0 -851 0 0 154 c0 143 2 155 23 187 12 18 38 44 56
56 l34 23 737 0 737 0 33 -22z m408 -134 c36 -18 59 -38 75 -65 38 -66 107
-77 144 -22 81 121 198 143 295 55 89 -80 102 -179 40 -308 -67 -138 -178
-256 -314 -337 -116 -69 -135 -54 -140 109 -3 114 -5 123 -33 169 -41 66 -102
111 -170 125 l-55 11 0 134 0 133 28 10 c45 17 75 13 130 -14z m-92 -467 l24
-28 0 -710 0 -711 -29 -29 -29 -29 -1052 0 -1052 0 -29 29 -29 29 0 709 c0
769 -2 741 54 763 11 5 491 8 1069 7 l1049 -2 24 -28z m-2366 -998 c0 -103 -4
-178 -11 -191 -17 -32 -86 -58 -159 -58 -86 0 -138 25 -176 81 -18 27 -46 53
-74 67 -41 21 -57 22 -237 22 l-193 0 0 125 0 125 425 0 425 0 0 -171z m3668
-246 c-7 -113 -52 -187 -143 -236 -39 -22 -50 -22 -507 -25 l-468 -3 0 171 0
170 561 0 562 0 -5 -77z m-4121 -53 c30 -33 69 -62 120 -87 70 -34 82 -37 162
-37 54 1 102 7 129 17 l42 16 0 -28 c0 -16 3 -43 6 -60 l7 -31 -397 0 c-417 0
-443 3 -460 45 -3 9 -6 61 -6 116 l0 99 176 0 176 0 45 -50z"/>
<path d="M2502 1522 c-29 -29 -133 -169 -199 -267 -129 -192 -203 -363 -203
-467 0 -124 53 -242 150 -331 71 -66 144 -103 239 -119 225 -38 457 113 515
337 41 156 -5 301 -181 570 -73 110 -173 245 -205 275 -28 26 -91 27 -116 2z
m108 -259 c151 -187 240 -374 240 -505 0 -55 -40 -137 -83 -174 -41 -34 -120
-70 -174 -79 -85 -13 -217 41 -273 112 -105 134 -37 366 189 645 25 31 48 57
51 57 3 0 25 -25 50 -56z"/>
</g>
</svg>
