<?xml version="1.0" standalone="no"?>
<!DOCTYPE svg PUBLIC "-//W3C//DTD SVG 20010904//EN"
 "http://www.w3.org/TR/2001/REC-SVG-20010904/DTD/svg10.dtd">
<svg version="1.0" xmlns="http://www.w3.org/2000/svg"
 width="512.000000pt" height="512.000000pt" viewBox="0 0 512.000000 512.000000"
 preserveAspectRatio="xMidYMid meet">

<g transform="translate(0.000000,512.000000) scale(0.100000,-0.100000)"
fill="#none" stroke="none">
<path d="M800 4740 c-24 -24 -27 -40 -34 -160 -20 -373 -250 -590 -626 -590
-83 0 -93 -2 -115 -25 -32 -31 -33 -78 -2 -109 21 -21 36 -24 146 -31 244 -14
381 -80 486 -233 72 -107 115 -254 115 -399 0 -34 4 -73 10 -88 13 -35 64 -56
102 -43 41 14 58 55 58 137 0 89 21 200 54 281 33 82 33 113 0 139 -47 37 -86
26 -115 -30 -11 -22 -21 -39 -24 -39 -2 0 -21 33 -42 73 -46 89 -163 209 -247
253 l-58 31 57 33 c108 62 237 206 276 307 9 25 11 23 57 -56 56 -98 150 -194
239 -247 l65 -38 -29 -14 c-39 -20 -53 -40 -53 -77 0 -32 19 -56 53 -68 10 -4
45 4 80 18 95 39 161 53 287 60 69 4 124 13 137 21 29 18 38 65 19 103 -18 35
-30 38 -181 45 -183 9 -292 52 -398 157 -110 110 -162 243 -176 446 -6 99 -10
116 -31 138 -29 31 -81 34 -110 5z"/>
<path d="M3165 4525 c-23 -22 -25 -31 -25 -122 0 -210 -39 -473 -96 -654 -141
-446 -444 -767 -854 -903 -186 -62 -288 -78 -550 -85 -154 -5 -243 -11 -257
-19 -51 -28 -58 -98 -15 -141 l28 -28 229 -6 c252 -6 349 -19 510 -68 179 -55
285 -108 427 -211 78 -57 120 -65 150 -28 23 28 23 72 1 98 -66 76 -322 216
-498 273 l-99 32 111 37 c488 163 812 513 972 1048 16 53 31 90 34 82 117
-381 210 -557 397 -753 171 -180 351 -293 601 -376 l110 -37 -113 -37 c-227
-75 -408 -186 -573 -352 -195 -194 -319 -414 -406 -715 -19 -64 -23 -71 -29
-50 -68 224 -138 389 -221 520 -55 86 -82 106 -123 90 -27 -10 -56 -46 -56
-70 0 -9 20 -48 45 -87 172 -277 254 -573 271 -973 6 -144 9 -168 26 -187 26
-28 64 -37 100 -22 47 19 58 54 58 181 0 401 113 785 310 1060 174 244 477
436 792 504 142 30 195 36 421 42 l229 7 24 28 c42 49 22 127 -38 145 -18 6
-127 13 -243 15 -229 5 -324 18 -495 68 -362 105 -641 340 -814 686 -117 235
-186 551 -186 855 0 149 -16 178 -96 178 -24 0 -43 -8 -59 -25z"/>
<path d="M1661 2034 c-15 -19 -21 -41 -21 -75 0 -65 -18 -192 -37 -259 -43
-153 -143 -275 -278 -340 -101 -48 -142 -57 -290 -66 -101 -5 -124 -10 -142
-27 -31 -28 -31 -80 0 -111 21 -21 35 -23 148 -29 373 -16 571 -221 596 -615
7 -124 22 -152 82 -152 62 0 73 21 88 167 21 207 71 338 167 435 106 109 229
156 424 165 147 7 172 19 172 83 0 65 -21 76 -158 84 -125 7 -224 27 -284 57
-49 25 -100 25 -123 -1 -34 -38 -14 -110 36 -125 28 -9 23 -19 -18 -39 -102
-49 -214 -163 -271 -278 l-30 -61 -22 44 c-62 122 -166 234 -267 286 -29 16
-53 30 -53 33 0 3 28 21 62 40 80 45 177 143 228 228 22 38 40 74 40 80 0 23
18 12 30 -18 26 -63 93 -80 129 -34 27 35 27 45 -9 135 -34 88 -60 224 -60
314 0 51 -4 65 -23 83 -34 32 -89 30 -116 -4z"/>
</g>
</svg>
