<?xml version="1.0" standalone="no"?>
<!DOCTYPE svg PUBLIC "-//W3C//DTD SVG 20010904//EN"
 "http://www.w3.org/TR/2001/REC-SVG-20010904/DTD/svg10.dtd">
<svg version="1.0" xmlns="http://www.w3.org/2000/svg"
 width="512.000000pt" height="512.000000pt" viewBox="0 0 512.000000 512.000000"
 preserveAspectRatio="xMidYMid meet">

<g transform="translate(0.000000,512.000000) scale(0.100000,-0.100000)"
fill="none" stroke="none">
<path d="M2670 5111 c-91 -29 -148 -88 -193 -195 -19 -44 -191 -479 -383 -965
-266 -674 -354 -886 -369 -892 -11 -5 -360 -74 -775 -155 -473 -91 -771 -153
-797 -165 -84 -41 -153 -150 -153 -244 0 -64 60 -330 77 -342 26 -20 87 -16
108 7 20 22 19 40 -15 222 -23 121 -23 129 -7 162 31 66 -74 41 1267 301 272
53 623 121 780 152 265 51 288 54 324 42 22 -8 48 -26 58 -40 25 -33 462
-2267 453 -2315 -8 -43 -39 -80 -78 -93 -41 -14 -2243 -441 -2271 -441 -34 0
-85 37 -101 72 -8 18 -83 386 -166 818 -83 432 -155 795 -160 808 -24 62 -139
41 -139 -26 0 -58 312 -1629 331 -1669 40 -84 150 -153 243 -153 16 0 158 25
315 55 157 31 423 83 591 115 168 33 550 107 850 165 335 65 561 114 587 126
83 40 153 150 153 240 0 15 -57 318 -126 674 -69 356 -124 650 -122 654 2 4
224 -81 493 -188 l490 -196 80 0 c58 0 90 5 115 19 43 22 107 82 125 116 7 14
144 357 304 762 303 767 301 761 259 795 -7 6 -25 14 -39 18 -55 14 -61 1
-359 -755 -155 -393 -288 -726 -295 -740 -21 -40 -50 -61 -94 -67 -35 -5 -107
21 -578 207 -296 117 -539 213 -540 214 -1 1 -36 179 -78 396 -80 411 -94 458
-152 511 -42 40 -110 70 -167 75 -36 3 -131 -11 -321 -49 -148 -29 -271 -52
-273 -51 -2 1 157 409 353 906 265 672 364 910 384 931 59 61 5 78 1143 -372
570 -225 1057 -419 1082 -430 50 -22 86 -69 86 -113 0 -15 -28 -97 -61 -182
-70 -175 -71 -196 -13 -223 63 -31 79 -13 153 172 72 180 81 226 56 310 -13
45 -28 69 -68 109 -52 51 -54 52 -677 298 -344 136 -832 329 -1085 429 -382
151 -470 182 -520 185 -33 2 -71 0 -85 -5z"/>
<path d="M2862 4559 c-108 -54 -168 -158 -159 -276 19 -247 303 -362 486 -197
67 61 95 120 95 209 0 224 -223 364 -422 264z m228 -157 c95 -95 34 -242 -101
-242 -117 0 -183 147 -103 232 37 38 57 47 118 47 43 1 52 -3 86 -37z"/>
<path d="M3287 3656 c-124 -45 -198 -145 -198 -269 0 -101 28 -164 100 -230
57 -51 115 -70 203 -65 174 9 288 136 276 307 -8 112 -61 191 -160 240 -69 35
-152 41 -221 17z m161 -152 c42 -24 65 -63 70 -114 8 -90 -49 -150 -144 -150
-57 0 -94 22 -119 70 -21 40 -19 109 4 146 35 58 132 82 189 48z"/>
<path d="M3666 2734 c-74 -23 -159 -112 -182 -189 -70 -244 169 -458 397 -353
113 52 173 142 173 263 1 206 -187 340 -388 279z m157 -145 c91 -47 112 -149
46 -224 -85 -97 -234 -46 -246 84 -4 36 0 53 19 81 40 60 126 87 181 59z"/>
<path d="M2053 2712 c-102 -37 -172 -115 -193 -219 -45 -216 164 -404 376
-337 46 14 72 31 115 73 63 63 89 124 89 206 0 197 -203 343 -387 277z m157
-150 c74 -37 102 -131 60 -199 -60 -99 -199 -93 -250 12 -25 52 -25 68 0 120
36 74 118 103 190 67z"/>
<path d="M671 2443 c-53 -19 -128 -91 -156 -148 -12 -25 -21 -68 -23 -118 -4
-68 -1 -84 22 -132 33 -66 101 -128 163 -149 73 -25 169 -21 231 10 213 106
216 417 6 524 -62 31 -177 38 -243 13z m183 -152 c89 -59 88 -198 -3 -246 -38
-19 -104 -19 -142 0 -89 47 -93 193 -6 245 42 26 113 26 151 1z"/>
<path d="M1491 1873 c-53 -19 -128 -90 -156 -148 -29 -60 -33 -180 -7 -238 27
-60 80 -118 139 -147 40 -21 62 -25 138 -25 80 0 95 3 137 27 126 75 179 222
131 364 -22 66 -101 145 -167 167 -61 21 -156 21 -215 0z m183 -152 c89 -59
88 -198 -3 -246 -38 -19 -104 -19 -142 0 -89 47 -93 193 -6 245 42 26 113 26
151 1z"/>
<path d="M2314 1304 c-54 -20 -118 -75 -151 -131 -35 -59 -43 -167 -19 -240
36 -110 153 -193 271 -193 90 0 151 24 211 84 81 81 106 198 67 311 -19 57
-87 131 -148 160 -52 25 -174 30 -231 9z m183 -154 c87 -52 83 -198 -6 -245
-98 -50 -211 16 -211 123 0 85 56 142 140 142 27 0 58 -8 77 -20z"/>
<path d="M985 1051 c-92 -24 -180 -103 -209 -188 -80 -233 149 -459 378 -373
118 45 189 149 189 276 0 114 -58 211 -158 259 -57 29 -147 40 -200 26z m144
-168 c44 -34 64 -69 64 -116 0 -147 -187 -199 -263 -74 -77 125 82 276 199
190z"/>
</g>
</svg>
