<?xml version="1.0" standalone="no"?>
<!DOCTYPE svg PUBLIC "-//W3C//DTD SVG 20010904//EN"
 "http://www.w3.org/TR/2001/REC-SVG-20010904/DTD/svg10.dtd">
<svg version="1.0" xmlns="http://www.w3.org/2000/svg"
 width="512.000000pt" height="512.000000pt" viewBox="0 0 512.000000 512.000000"
 preserveAspectRatio="xMidYMid meet">

<g transform="translate(0.000000,512.000000) scale(0.100000,-0.100000)"
fill="#none" stroke="none">
<path d="M3910 5025 c-103 -29 -193 -96 -245 -183 l-30 -50 -65 5 c-265 22
-488 -220 -443 -483 22 -129 40 -153 350 -465 l284 -285 -3 -107 -3 -107 -105
75 c-115 81 -171 102 -242 90 -176 -30 -265 -224 -168 -365 l18 -25 -114 -128
c-62 -70 -117 -127 -120 -128 -4 0 -19 49 -34 108 -70 276 -201 504 -409 713
-63 64 -130 141 -149 174 -73 124 -239 270 -375 330 l-54 25 -5 100 c-4 91 -9
108 -41 175 -66 133 -186 213 -336 223 l-78 6 -78 -234 c-43 -129 -82 -239
-87 -245 -5 -7 -29 -15 -53 -19 -59 -8 -171 -65 -228 -115 l-45 -40 -149 131
c-81 73 -172 148 -202 167 -111 71 -254 112 -393 112 l-71 0 6 -107 c7 -129
33 -235 83 -336 20 -41 108 -175 195 -298 88 -123 158 -228 155 -234 -2 -5
-140 -219 -306 -475 l-303 -465 68 -133 c99 -192 178 -258 320 -270 100 -8
156 15 296 119 112 83 171 119 199 119 6 0 10 -51 10 -141 l0 -141 -61 -66
c-118 -129 -194 -270 -236 -440 -12 -47 -17 -109 -17 -207 0 -174 21 -264 98
-417 39 -79 49 -108 38 -108 -106 0 -222 -125 -222 -240 0 -95 81 -204 170
-228 35 -10 263 -12 980 -10 l936 3 -4 -61 -4 -61 54 -46 c113 -96 247 -157
348 -157 101 0 235 61 348 157 l54 46 -4 61 -4 61 65 0 64 0 42 50 c22 28 49
62 58 75 17 23 19 24 28 7 6 -9 33 -45 61 -78 l51 -61 61 4 62 4 -4 -61 -4
-62 54 -46 c113 -96 247 -157 348 -157 101 0 235 61 348 157 l54 46 -4 62 -4
61 61 -4 62 -4 46 54 c96 113 157 247 157 348 0 101 -61 235 -157 348 l-46 54
-61 -4 -61 -4 0 65 0 65 -65 53 c-72 58 -184 118 -242 128 -21 4 -38 11 -38
15 0 5 7 37 16 72 29 111 4 223 -77 348 -34 52 -38 65 -27 78 7 10 52 65 101
124 l89 108 54 -6 c82 -10 139 10 199 70 71 71 91 147 63 238 -18 60 -69 109
-233 227 l-150 107 -3 459 -2 459 283 285 c309 312 328 336 350 465 28 164
-52 338 -194 423 -147 88 -328 80 -469 -21 l-50 -36 -50 36 c-103 74 -245 101
-360 69z m220 -170 c19 -9 70 -51 113 -93 l77 -77 78 77 c100 99 127 113 222
113 83 0 121 -15 178 -69 57 -53 77 -101 77 -186 0 -58 -5 -84 -22 -115 -12
-22 -137 -155 -277 -295 l-256 -255 -256 255 c-140 140 -265 273 -277 295 -29
53 -30 173 -3 225 35 67 95 118 166 141 38 13 142 4 180 -16z m-545 -223 c6
-4 16 -38 22 -75 21 -126 46 -162 272 -390 l205 -207 -122 -123 -122 -122
-256 255 c-140 140 -265 273 -277 295 -29 53 -30 173 -3 225 35 67 97 120 166
141 33 10 102 11 115 1z m-1848 -118 c41 -31 77 -79 92 -123 6 -19 11 -91 11
-162 l0 -127 78 -26 c109 -37 194 -89 276 -172 130 -129 194 -276 203 -464 4
-74 0 -127 -11 -179 -40 -191 -169 -355 -344 -437 -31 -14 -59 -28 -60 -29 -8
-8 43 -145 54 -145 31 0 195 95 252 146 35 31 64 55 66 53 2 -2 12 -35 22 -74
16 -64 18 -137 21 -900 l4 -829 -24 -46 c-14 -25 -30 -62 -37 -82 l-12 -38
-663 0 -663 0 -30 38 c-118 150 -182 352 -169 536 15 207 93 370 251 526 l66
64 0 178 0 178 65 0 c174 0 324 77 414 211 45 67 81 170 81 230 l0 39 -79 0
-78 0 -6 -49 c-12 -98 -81 -192 -175 -238 -55 -27 -64 -28 -257 -33 -238 -7
-233 -5 -413 -138 -126 -94 -164 -110 -225 -98 -63 13 -102 49 -150 143 l-45
88 447 688 c246 378 467 707 490 731 59 60 146 98 238 104 l72 5 78 234 c77
231 78 234 103 228 14 -4 39 -18 57 -31z m-1240 -224 c33 -12 83 -35 111 -53
78 -49 353 -297 345 -310 -69 -113 -177 -267 -182 -260 -18 19 -232 324 -270
382 -39 61 -91 199 -91 242 0 24 12 24 87 -1z m3725 -467 c17 -15 18 -41 18
-415 0 -219 -2 -398 -5 -398 -2 0 -74 50 -160 111 l-155 111 0 166 0 167 137
137 c76 76 140 138 142 138 2 0 13 -7 23 -17z m-1573 -468 c114 -174 184 -358
215 -568 13 -85 16 -214 16 -703 l0 -599 -47 -25 c-26 -14 -81 -51 -121 -83
l-74 -59 4 -64 c3 -52 1 -64 -10 -59 -7 3 -27 5 -42 5 l-29 0 -4 763 c-3 831
0 785 -63 968 l-26 75 35 95 c41 109 57 192 57 297 0 46 4 71 10 67 6 -3 41
-53 79 -110z m1391 -404 c311 -222 573 -412 583 -423 42 -48 7 -122 -59 -122
-36 -1 -88 34 -604 403 -311 222 -573 412 -582 423 -43 49 1 134 65 126 22 -3
201 -125 597 -407z m-174 -270 l474 -339 -107 -129 c-58 -70 -107 -129 -107
-130 -1 -1 -13 -4 -27 -8 l-25 -6 4 64 4 64 -54 46 c-113 96 -247 157 -348
157 -101 0 -235 -61 -348 -157 l-54 -46 4 -62 4 -61 -59 4 c-67 5 -74 1 -143
-91 l-44 -59 0 362 0 363 93 96 c50 54 126 136 167 184 41 47 79 86 83 87 4 0
222 -153 483 -339z m-59 -481 c32 -17 71 -41 87 -54 l28 -23 -16 -55 c-14 -50
-22 -60 -86 -106 -66 -49 -71 -51 -119 -45 -35 4 -64 0 -101 -13 l-52 -18 -19
24 c-32 41 -68 115 -79 166 -12 54 -10 58 78 111 105 63 181 66 279 13z m-510
-295 c45 -13 56 -23 101 -84 49 -68 51 -71 45 -124 -4 -41 -1 -64 15 -100 l20
-46 -36 -27 c-35 -27 -135 -73 -160 -74 -7 0 -30 9 -52 20 -31 16 -45 34 -72
87 -56 114 -44 195 45 321 17 23 33 42 37 42 3 0 29 -7 57 -15z m860 -27 c89
-126 101 -207 45 -321 -27 -55 -41 -71 -74 -88 -65 -33 -103 -17 -166 71 -49
66 -51 71 -45 119 4 35 0 64 -13 101 l-18 52 24 19 c52 41 149 83 206 88 6 1
24 -18 41 -41z m-422 -143 c50 -49 15 -135 -55 -135 -41 0 -80 39 -80 80 0 41
39 80 80 80 19 0 40 -9 55 -25z m141 -359 c14 -26 31 -78 38 -115 l13 -67 -62
4 -62 4 -51 -61 c-28 -33 -56 -69 -61 -78 -11 -17 -11 -17 -22 0 -5 9 -33 45
-61 78 l-50 61 -59 -4 c-67 -3 -68 -2 -48 92 10 46 16 54 83 104 71 54 72 54
131 50 46 -4 69 0 100 15 l40 19 23 -27 c13 -14 34 -48 48 -75z m-709 -56 c32
-17 71 -41 87 -54 l28 -23 -16 -55 c-14 -50 -22 -60 -86 -106 -66 -49 -71 -51
-119 -45 -35 4 -64 0 -101 -13 l-52 -18 -19 24 c-32 41 -68 115 -79 166 -12
54 -10 58 78 111 105 63 181 66 279 13z m1280 0 c32 -17 71 -41 87 -54 l28
-23 -16 -55 c-14 -50 -22 -60 -86 -106 -66 -49 -71 -51 -119 -45 -35 4 -64 0
-101 -13 l-52 -18 -19 24 c-32 41 -68 115 -79 166 -12 54 -10 58 78 111 105
63 181 66 279 13z m-1790 -295 c45 -13 56 -23 101 -85 49 -66 51 -71 45 -119
-4 -35 0 -64 13 -101 l18 -52 -24 -19 c-35 -29 -138 -76 -181 -83 -33 -6 -37
-3 -66 36 -60 85 -77 128 -77 198 0 49 6 76 23 110 28 53 82 130 91 130 3 0
29 -7 57 -15z m860 -27 c60 -85 77 -129 77 -198 1 -55 -4 -74 -32 -125 -18
-33 -43 -73 -56 -89 l-23 -28 -55 16 c-50 14 -60 22 -106 86 -49 66 -51 71
-45 119 4 35 0 64 -13 101 l-18 52 24 19 c52 41 149 83 206 88 6 1 24 -18 41
-41z m420 27 c45 -13 56 -23 101 -85 49 -66 51 -71 45 -119 -4 -35 0 -64 13
-101 l18 -52 -24 -19 c-35 -29 -138 -76 -181 -83 -33 -6 -37 -3 -66 36 -60 85
-77 128 -77 198 0 49 6 76 23 110 28 53 82 130 91 130 3 0 29 -7 57 -15z m860
-27 c60 -85 77 -129 77 -198 1 -55 -4 -74 -32 -125 -18 -33 -43 -73 -56 -89
l-23 -28 -55 16 c-50 14 -60 22 -106 86 -49 66 -51 71 -45 119 4 35 0 64 -13
101 l-18 52 24 19 c52 41 149 83 206 88 6 1 24 -18 41 -41z m-1702 -143 c50
-49 15 -135 -55 -135 -41 0 -80 39 -80 80 0 41 39 80 80 80 19 0 40 -9 55 -25z
m1280 0 c50 -49 15 -135 -55 -135 -41 0 -80 39 -80 80 0 41 39 80 80 80 19 0
40 -9 55 -25z m-2035 -172 c7 -21 23 -57 35 -80 l24 -43 -815 0 -815 0 -24 25
c-16 15 -25 36 -25 55 0 19 9 40 25 55 l24 25 780 0 779 0 12 -37z m863 -130
c33 -47 63 -117 71 -164 6 -33 3 -37 -36 -66 -85 -60 -129 -77 -198 -77 -55
-1 -74 4 -125 32 -33 18 -73 43 -89 56 l-28 23 16 55 c14 50 22 60 85 106 67
49 71 51 123 45 36 -3 64 0 88 10 53 23 65 20 93 -20z m1280 0 c33 -47 63
-117 71 -164 6 -33 3 -37 -36 -66 -85 -60 -129 -77 -198 -77 -55 -1 -74 4
-125 32 -33 18 -73 43 -89 56 l-28 23 16 55 c14 50 22 60 85 106 67 49 71 51
123 45 36 -3 64 0 88 10 53 23 65 20 93 -20z"/>
<path d="M965 3473 c8 -53 41 -125 79 -170 14 -16 53 -45 88 -64 58 -31 70
-34 148 -34 78 0 90 3 148 34 35 19 74 48 88 64 38 45 71 117 79 170 l7 47
-79 0 -79 0 -12 -44 c-40 -151 -264 -151 -304 0 l-12 44 -79 0 -79 0 7 -47z"/>
<path d="M1173 1875 c-144 -153 -199 -267 -210 -435 -6 -102 12 -197 55 -293
l31 -67 61 36 c33 20 63 41 66 45 3 5 -7 39 -21 75 -50 125 -43 260 21 385 14
29 67 94 120 149 l93 96 -52 52 c-29 29 -58 52 -64 52 -6 0 -51 -43 -100 -95z"/>
</g>
</svg>
