<?xml version="1.0" standalone="no"?>
<!DOCTYPE svg PUBLIC "-//W3C//DTD SVG 20010904//EN"
 "http://www.w3.org/TR/2001/REC-SVG-20010904/DTD/svg10.dtd">
<svg version="1.0" xmlns="http://www.w3.org/2000/svg"
 width="512.000000pt" height="512.000000pt" viewBox="0 0 512.000000 512.000000"
 preserveAspectRatio="xMidYMid meet">

<g transform="translate(0.000000,512.000000) scale(0.100000,-0.100000)"
fill="#none" stroke="none">
<path d="M1545 5095 l-25 -24 0 -259 0 -258 -37 -13 c-143 -50 -283 -187 -364
-356 -68 -142 -83 -215 -83 -415 0 -156 3 -185 26 -271 57 -210 190 -401 361
-518 33 -22 46 -38 43 -49 -3 -9 -26 -98 -51 -197 -26 -99 -54 -206 -62 -237
-14 -53 -14 -60 1 -83 19 -29 59 -41 95 -29 31 11 48 56 115 313 25 95 46 175
48 176 2 2 35 -5 73 -15 39 -11 87 -19 108 -19 30 -1 37 -5 37 -21 0 -34 -68
-526 -99 -720 -48 -296 -154 -834 -167 -849 -1 -2 -31 14 -66 35 -35 22 -117
66 -183 99 -106 53 -122 64 -139 99 -24 48 -21 60 62 246 79 179 152 375 152
409 0 34 -37 71 -72 71 -44 0 -66 -31 -114 -160 -26 -69 -71 -181 -102 -250
-101 -231 -108 -266 -72 -364 29 -76 82 -121 231 -193 434 -211 727 -537 810
-903 42 -185 48 -199 96 -251 76 -82 109 -89 393 -89 284 0 317 7 393 89 48
52 54 66 96 251 84 370 371 688 816 906 156 76 205 121 231 212 24 80 13 133
-54 284 -126 280 -244 629 -338 998 -25 96 -47 182 -50 191 -3 12 15 31 59 62
131 94 285 291 272 347 -9 37 -35 60 -66 60 -45 0 -58 -10 -96 -69 -84 -131
-177 -215 -305 -276 -102 -48 -177 -65 -288 -65 -173 0 -352 72 -492 198 -80
72 -118 92 -178 92 -60 0 -98 -20 -181 -95 -82 -73 -229 -153 -334 -181 -80
-21 -233 -20 -315 1 -248 63 -450 270 -522 534 -17 60 -21 107 -22 226 -1 171
17 255 80 376 70 132 208 252 305 265 54 7 95 -14 266 -133 241 -167 422 -326
605 -531 70 -78 166 -78 236 0 183 205 364 364 605 531 171 119 212 140 266
133 104 -14 246 -142 312 -281 64 -134 73 -178 73 -371 1 -156 3 -174 20 -193
28 -31 82 -25 110 12 19 26 21 41 20 200 0 145 -4 185 -22 252 -68 245 -235
449 -424 516 l-38 13 0 256 c0 244 -1 257 -20 278 -28 30 -80 29 -108 -1 -21
-23 -22 -30 -22 -280 l0 -257 -35 -14 c-51 -22 -220 -135 -375 -252 -167 -126
-336 -278 -415 -372 -32 -40 -62 -72 -65 -72 -3 0 -36 36 -74 81 -121 143
-360 341 -622 517 -67 45 -138 89 -158 97 l-36 15 0 261 0 260 -25 24 c-13 14
-36 25 -50 25 -14 0 -37 -11 -50 -25z m1088 -2018 c125 -109 262 -181 414
-220 85 -22 88 -24 91 -52 8 -90 79 -589 108 -770 46 -281 77 -440 130 -683
l45 -203 -28 -21 c-15 -11 -78 -71 -139 -133 -198 -200 -312 -408 -364 -668
-36 -176 -38 -177 -330 -177 -292 0 -294 1 -330 177 -52 260 -166 468 -364
668 -61 62 -124 122 -139 133 l-28 21 45 203 c86 385 206 1117 238 1453 3 28
6 30 93 52 150 38 304 121 420 227 28 25 56 45 63 46 8 0 42 -24 75 -53z m887
-239 c128 -499 240 -840 382 -1157 83 -185 76 -214 -67 -281 -46 -21 -127 -64
-180 -95 -53 -31 -98 -55 -100 -53 -12 14 -118 555 -166 848 -31 194 -99 686
-99 720 0 16 7 20 33 21 17 0 64 9 102 19 39 10 73 18 77 19 4 0 12 -18 18
-41z"/>
<path d="M2371 2504 c-12 -15 -21 -33 -21 -41 0 -24 27 -66 64 -103 l36 -34
-47 -48 c-39 -39 -47 -54 -47 -84 0 -26 7 -42 23 -55 38 -31 73 -24 130 27
l51 46 51 -46 c57 -51 92 -58 130 -27 16 13 23 29 23 55 0 30 -8 45 -46 84
l-47 47 44 46 c55 58 65 91 38 127 -14 19 -31 28 -56 30 -32 3 -43 -3 -87 -44
l-50 -47 -50 47 c-60 56 -105 63 -139 20z"/>
<path d="M2403 1859 c-25 -9 -53 -47 -53 -72 0 -10 23 -43 51 -73 l52 -54 -53
-56 c-47 -49 -52 -59 -46 -87 3 -18 16 -40 27 -49 37 -31 69 -23 126 34 l53
52 53 -52 c57 -57 89 -65 126 -34 11 9 24 31 27 49 6 28 1 38 -46 87 l-53 56
52 54 c57 61 62 82 28 122 -37 43 -79 36 -139 -22 l-48 -48 -47 46 c-51 49
-76 60 -110 47z"/>
<path d="M2380 1172 c-16 -17 -30 -40 -30 -52 0 -12 23 -45 51 -76 l52 -54
-53 -56 c-47 -49 -52 -59 -46 -87 3 -18 16 -40 27 -49 36 -30 66 -22 125 33
l54 52 54 -52 c59 -55 89 -63 125 -33 11 9 24 31 27 49 6 28 1 38 -46 87 l-53
56 52 54 c28 31 51 64 51 76 0 12 -14 35 -30 52 -40 39 -69 33 -132 -30 l-48
-46 -47 46 c-64 63 -93 69 -133 30z"/>
</g>
</svg>
