<?xml version="1.0" standalone="no"?>
<!DOCTYPE svg PUBLIC "-//W3C//DTD SVG 20010904//EN"
 "http://www.w3.org/TR/2001/REC-SVG-20010904/DTD/svg10.dtd">
<svg version="1.0" xmlns="http://www.w3.org/2000/svg"
 width="512.000000pt" height="512.000000pt" viewBox="0 0 512.000000 512.000000"
 preserveAspectRatio="xMidYMid meet">

<g transform="translate(0.000000,512.000000) scale(0.100000,-0.100000)"
fill="#000000" stroke="none">
<path d="M340 3859 l0 -791 -149 -547 c-193 -707 -186 -674 -185 -856 0 -220
33 -357 135 -555 62 -121 125 -205 231 -306 182 -174 400 -282 648 -320 210
-31 367 -12 630 75 353 119 558 154 905 154 346 1 596 -41 930 -157 236 -81
400 -101 603 -72 448 63 818 368 967 798 46 131 60 223 59 388 -1 187 6 159
-188 868 l-146 533 0 790 0 789 -85 0 -85 0 0 -725 0 -725 -71 0 c-195 0 -387
-94 -493 -243 -51 -72 -83 -140 -101 -212 l-11 -50 -75 -12 c-161 -27 -281
-91 -382 -203 -54 -60 -123 -193 -133 -257 -6 -38 -10 -43 -38 -47 -126 -18
-169 -30 -241 -65 -205 -101 -318 -281 -333 -526 l-7 -109 -35 -8 c-45 -10
-215 -10 -260 0 l-35 8 -6 109 c-11 181 -63 301 -180 416 -104 104 -204 148
-395 175 -28 4 -32 9 -38 47 -4 23 -25 80 -48 127 -54 113 -161 222 -269 273
-67 32 -196 67 -248 67 -15 0 -23 10 -31 43 -32 121 -105 245 -186 315 -108
93 -269 152 -413 152 l-71 0 0 725 0 725 -85 0 -85 0 0 -791z m330 -839 c113
-22 214 -85 275 -174 43 -64 64 -122 76 -211 12 -99 27 -110 155 -118 158 -10
247 -48 333 -142 62 -67 111 -183 111 -262 0 -40 23 -88 45 -97 9 -3 38 -6 63
-6 86 -1 186 -20 248 -49 139 -65 244 -233 244 -392 l0 -29 -127 64 c-572 287
-1106 750 -1479 1283 -107 153 -104 143 -46 143 27 0 73 -5 102 -10z m3915
-17 c-363 -568 -916 -1068 -1532 -1386 -172 -88 -162 -90 -143 26 19 120 84
221 182 287 73 48 137 67 258 76 52 4 102 10 111 15 21 11 34 48 47 131 19
125 85 228 189 295 72 46 129 62 247 70 128 8 143 19 155 118 11 82 29 137 65
194 80 126 215 197 380 200 l58 1 -17 -27z m-4033 -320 c95 -127 282 -347 352
-412 l36 -35 0 -158 0 -158 85 0 85 0 0 76 0 76 50 -44 c268 -230 574 -435
880 -588 69 -34 127 -64 129 -66 17 -15 -75 -212 -144 -308 -55 -78 -186 -204
-261 -252 -75 -48 -208 -110 -268 -126 l-49 -13 -69 75 c-104 113 -174 227
-219 359 -23 65 -49 206 -49 262 l0 39 -86 0 -87 0 6 -88 c15 -207 104 -439
229 -592 84 -103 86 -94 -22 -87 -52 3 -126 13 -165 21 -404 86 -708 396 -796
811 -8 34 -13 122 -12 200 0 133 3 149 45 310 98 373 223 825 229 825 3 0 48
-57 101 -127z m4245 -326 c68 -248 129 -477 135 -507 7 -31 12 -116 12 -195
-1 -116 -6 -156 -27 -237 -102 -387 -398 -672 -782 -754 -38 -8 -113 -18 -165
-21 l-95 -6 28 34 c108 135 186 274 226 404 27 87 51 222 51 286 l0 49 -85 0
-85 0 0 -47 c0 -74 -34 -222 -73 -316 -43 -107 -107 -204 -196 -299 l-68 -73
-74 24 c-283 91 -521 318 -629 603 -11 29 -20 58 -20 64 0 6 39 29 88 52 283
135 614 350 876 571 l96 82 0 -76 0 -75 85 0 85 0 0 158 0 158 36 35 c70 66
258 285 352 412 53 70 98 127 101 127 3 0 61 -204 128 -453z m-2314 -1067 c71
-8 159 -3 268 16 l37 6 17 -53 c36 -110 122 -260 206 -360 l44 -52 -40 6
c-262 44 -673 44 -915 0 l-35 -6 46 54 c85 101 161 233 205 357 19 54 19 54
54 48 19 -4 70 -11 113 -16z"/>
<path d="M940 1665 l0 -85 85 0 85 0 0 85 0 85 -85 0 -85 0 0 -85z"/>
<path d="M4010 1665 l0 -85 85 0 85 0 0 85 0 85 -85 0 -85 0 0 -85z"/>
</g>
</svg>
